<svg width="44" height="41" viewBox="0 0 44 41" fill="none" xmlns="http://www.w3.org/2000/svg">
<path d="M14 16.0225L22 24.0225L30 16.0225M6 2.02252H38C39.0609 2.02252 40.0783 2.44395 40.8284 3.19409C41.5786 3.94424 42 4.96166 42 6.02252V18.0225C42 23.3269 39.8929 28.4139 36.1421 32.1647C32.3914 35.9154 27.3043 38.0225 22 38.0225C19.3736 38.0225 16.7728 37.5052 14.3463 36.5001C11.9198 35.495 9.71504 34.0218 7.85786 32.1647C4.10714 28.4139 2 23.3269 2 18.0225V6.02252C2 4.96166 2.42143 3.94424 3.17157 3.19409C3.92172 2.44395 4.93913 2.02252 6 2.02252Z" stroke="#596F63" stroke-width="4" stroke-linecap="round" stroke-linejoin="round"/>
</svg>
