<svg width="70" height="70" viewBox="0 0 70 70" fill="none" xmlns="http://www.w3.org/2000/svg">
<path d="M34.8747 43.4687C39.6209 43.4687 43.4684 39.6212 43.4684 34.875C43.4684 30.1288 39.6209 26.2812 34.8747 26.2812C30.1285 26.2812 26.2809 30.1288 26.2809 34.875C26.2809 39.6212 30.1285 43.4687 34.8747 43.4687Z" stroke="white" stroke-width="4" stroke-linecap="round" stroke-linejoin="round"/>
<path d="M56.0726 43.4687C55.6913 44.3328 55.5775 45.2912 55.746 46.2204C55.9145 47.1497 56.3575 48.0072 57.0179 48.6823L57.1898 48.8542C57.7225 49.3862 58.145 50.0181 58.4333 50.7136C58.7217 51.4091 58.8701 52.1547 58.8701 52.9076C58.8701 53.6605 58.7217 54.406 58.4333 55.1015C58.145 55.797 57.7225 56.4288 57.1898 56.9609C56.6577 57.4936 56.0258 57.9162 55.3303 58.2045C54.6348 58.4928 53.8893 58.6412 53.1364 58.6412C52.3835 58.6412 51.638 58.4928 50.9425 58.2045C50.247 57.9162 49.6151 57.4936 49.083 56.9609L48.9111 56.7891C48.236 56.1287 47.3785 55.6857 46.4493 55.5172C45.52 55.3487 44.5616 55.4624 43.6976 55.8437C42.8503 56.2069 42.1277 56.8098 41.6188 57.5784C41.1098 58.3469 40.8367 59.2475 40.833 60.1693V60.6562C40.833 62.1757 40.2294 63.633 39.155 64.7074C38.0805 65.7818 36.6233 66.3854 35.1038 66.3854C33.5844 66.3854 32.1271 65.7818 31.0527 64.7074C29.9783 63.633 29.3747 62.1757 29.3747 60.6562V60.3984C29.3525 59.4503 29.0456 58.5307 28.4938 57.7593C27.9421 56.9879 27.1711 56.4003 26.2809 56.0729C25.4169 55.6916 24.4585 55.5778 23.5292 55.7463C22.6 55.9148 21.7425 56.3578 21.0674 57.0182L20.8955 57.1901C20.3634 57.7228 19.7316 58.1454 19.0361 58.4337C18.3405 58.722 17.595 58.8704 16.8421 58.8704C16.0892 58.8704 15.3437 58.722 14.6482 58.4337C13.9527 58.1454 13.3208 57.7228 12.7887 57.1901C12.2561 56.658 11.8335 56.0262 11.5452 55.3306C11.2568 54.6351 11.1084 53.8896 11.1084 53.1367C11.1084 52.3838 11.2568 51.6383 11.5452 50.9428C11.8335 50.2473 12.2561 49.6154 12.7887 49.0833L12.9606 48.9115C13.621 48.2363 14.064 47.3789 14.2325 46.4496C14.401 45.5203 14.2872 44.5619 13.9059 43.6979C13.5428 42.8507 12.9399 42.1281 12.1713 41.6191C11.4028 41.1101 10.5022 40.837 9.5804 40.8333H9.09342C7.57395 40.8333 6.11672 40.2297 5.04229 39.1553C3.96786 38.0809 3.36426 36.6236 3.36426 35.1042C3.36426 33.5847 3.96786 32.1275 5.04229 31.053C6.11672 29.9786 7.57395 29.375 9.09342 29.375H9.35124C10.2994 29.3528 11.219 29.0459 11.9904 28.4942C12.7618 27.9424 13.3494 27.1714 13.6768 26.2812C14.0581 25.4172 14.1718 24.4588 14.0033 23.5296C13.8348 22.6003 13.3918 21.7428 12.7314 21.0677L12.5596 20.8958C12.0269 20.3637 11.6043 19.7319 11.316 19.0364C11.0277 18.3409 10.8793 17.5953 10.8793 16.8424C10.8793 16.0895 11.0277 15.344 11.316 14.6485C11.6043 13.953 12.0269 13.3211 12.5596 12.7891C13.0917 12.2564 13.7235 11.8338 14.419 11.5455C15.1145 11.2572 15.8601 11.1088 16.613 11.1088C17.3659 11.1088 18.1114 11.2572 18.8069 11.5455C19.5024 11.8338 20.1343 12.2564 20.6663 12.7891L20.8382 12.9609C21.5133 13.6213 22.3708 14.0643 23.3001 14.2328C24.2293 14.4013 25.1878 14.2876 26.0518 13.9062H26.2809C27.1282 13.5431 27.8508 12.9402 28.3597 12.1716C28.8687 11.4031 29.1418 10.5025 29.1455 9.58073V9.09375C29.1455 7.57428 29.7491 6.11705 30.8235 5.04262C31.898 3.96819 33.3552 3.36458 34.8747 3.36458C36.3941 3.36458 37.8514 3.96819 38.9258 5.04262C40.0002 6.11705 40.6038 7.57428 40.6038 9.09375V9.35156C40.6075 10.2733 40.8806 11.1739 41.3896 11.9425C41.8986 12.711 42.6212 13.314 43.4684 13.6771C44.3324 14.0584 45.2909 14.1722 46.2201 14.0037C47.1494 13.8352 48.0068 13.3922 48.682 12.7318L48.8538 12.5599C49.3859 12.0272 50.0178 11.6046 50.7133 11.3163C51.4088 11.028 52.1543 10.8796 52.9072 10.8796C53.6601 10.8796 54.4056 11.028 55.1012 11.3163C55.7967 11.6046 56.4285 12.0272 56.9606 12.5599C57.4933 13.092 57.9159 13.7238 58.2042 14.4194C58.4925 15.1149 58.6409 15.8604 58.6409 16.6133C58.6409 17.3662 58.4925 18.1117 58.2042 18.8072C57.9159 19.5027 57.4933 20.1346 56.9606 20.6667L56.7887 20.8385C56.1283 21.5137 55.6853 22.3711 55.5168 23.3004C55.3484 24.2297 55.4621 25.1881 55.8434 26.0521V26.2812C56.2065 27.1285 56.8095 27.8511 57.578 28.3601C58.3466 28.869 59.2472 29.1422 60.1689 29.1458H60.6559C62.1754 29.1458 63.6326 29.7494 64.7071 30.8239C65.7815 31.8983 66.3851 33.3555 66.3851 34.875C66.3851 36.3945 65.7815 37.8517 64.7071 38.9261C63.6326 40.0006 62.1754 40.6042 60.6559 40.6042H60.3981C59.4763 40.6078 58.5757 40.881 57.8072 41.3899C57.0387 41.8989 56.4357 42.6215 56.0726 43.4687Z" stroke="white" stroke-width="4" stroke-linecap="round" stroke-linejoin="round"/>
</svg>
